<svg width="37" height="25" viewBox="0 0 37 25" fill="none" xmlns="http://www.w3.org/2000/svg">
<path d="M17.6023 10.6465C17.0802 10.5423 16.7439 10.0462 16.851 9.53841C16.9582 9.03065 17.4682 8.70351 17.9903 8.80773C18.5124 8.91194 18.8487 9.40804 18.7416 9.9158C18.6344 10.4236 18.1243 10.7507 17.6023 10.6465Z" fill="black"/>
<path d="M14.5724 10.9998C14.1808 10.9216 13.9286 10.5495 14.0089 10.1687C14.0893 9.7879 14.4719 9.54254 14.8634 9.62071C15.255 9.69887 15.5072 10.0709 15.4269 10.4518C15.3465 10.8326 14.9639 11.0779 14.5724 10.9998Z" fill="black"/>
<path d="M16.4083 12.8034C16.1472 12.7513 15.9791 12.5033 16.0326 12.2494C16.0862 11.9955 16.3413 11.8319 16.6023 11.884C16.8633 11.9361 17.0315 12.1842 16.9779 12.4381C16.9244 12.692 16.6693 12.8555 16.4083 12.8034Z" fill="black"/>
<path d="M19.3902 5.21191L21.9148 2.75656M23.4915 5.21191L26.981 1.81802M23.2502 1.69236L24.3273 0.644836M21.8027 6.85436L22.156 6.51074M20.8377 10.7342C20.8377 13.0667 18.8935 14.9576 16.4952 14.9576C14.097 14.9576 12.1528 13.0667 12.1528 10.7342C12.1528 8.40164 14.097 6.51074 16.4952 6.51074C18.8935 6.51074 20.8377 8.40164 20.8377 10.7342Z" stroke="black" stroke-width="1.2" stroke-linecap="round"/>
<path d="M19.9316 1.34874L16.916 4.39901C9.67857 4.39901 8.11044 12.0021 12.0911 15.4269C16.0717 18.8517 23.7916 16.6001 22.8266 9.56101L27.6516 4.63365" stroke="#6100DD" stroke-width="1.2" stroke-linecap="round"/>
<path d="M3.41262 18.3446C3.44631 18.2702 3.50297 18.2076 3.5826 18.157C3.6653 18.1034 3.74952 18.0765 3.83528 18.0765C3.91797 18.0765 4.00067 18.1034 4.08336 18.157C4.16912 18.2076 4.22731 18.2702 4.25793 18.3446L6.78468 24.046C6.81225 24.1056 6.82603 24.1667 6.82603 24.2292C6.82603 24.3513 6.78009 24.4571 6.68821 24.5465C6.59939 24.6328 6.49219 24.676 6.36662 24.676C6.28086 24.676 6.19664 24.6492 6.11395 24.5956C6.03125 24.542 5.97306 24.4779 5.93937 24.4035L5.15378 22.6296L2.53515 22.5939L1.73119 24.4079C1.70056 24.4824 1.6439 24.5465 1.5612 24.6001C1.47851 24.6567 1.39429 24.685 1.30853 24.685C1.18296 24.685 1.07423 24.6418 0.98235 24.5554C0.893531 24.466 0.849121 24.3603 0.849121 24.2382C0.849121 24.1756 0.862903 24.1145 0.890468 24.055L3.41262 18.3446ZM3.83528 19.6538L2.93024 21.7047L4.7541 21.727L3.83528 19.6538Z" fill="black"/>
<path d="M9.81678 19.6762C10.2548 19.6762 10.6514 19.77 11.0066 19.9576C11.365 20.1423 11.6299 20.3925 11.8014 20.7083C11.8382 20.7709 11.8566 20.8423 11.8566 20.9228C11.8566 21.0449 11.8106 21.1506 11.7187 21.24C11.6299 21.3264 11.5227 21.3696 11.3971 21.3696C11.3206 21.3696 11.2409 21.3458 11.1583 21.2981C11.0786 21.2475 11.022 21.1894 10.9883 21.1238C10.8872 20.9392 10.7356 20.8006 10.5335 20.7083C10.3313 20.616 10.0909 20.5698 9.81219 20.5698C9.64986 20.5698 9.4661 20.5906 9.2609 20.6323C9.05569 20.674 8.87806 20.7411 8.72798 20.8334C8.57791 20.9257 8.50287 21.0509 8.50287 21.2087C8.50287 21.3249 8.56413 21.4172 8.68664 21.4858C8.81221 21.5513 8.96534 21.6019 9.14604 21.6377C9.32981 21.6734 9.51357 21.7002 9.69733 21.7181C9.8811 21.733 10.0312 21.7464 10.1476 21.7583C10.3742 21.7821 10.5978 21.8194 10.8183 21.87C11.0388 21.9177 11.2409 21.9892 11.4247 22.0845C11.6085 22.1798 11.754 22.3094 11.8612 22.4732C11.9714 22.6371 12.0265 22.8456 12.0265 23.0988C12.0265 23.4592 11.9193 23.7541 11.705 23.9835C11.4906 24.2128 11.2164 24.3826 10.8826 24.4928C10.5488 24.6031 10.1996 24.6582 9.83516 24.6582C9.33593 24.6582 8.88112 24.5628 8.47071 24.3722C8.06337 24.1786 7.76169 23.8971 7.56568 23.5277C7.52893 23.4562 7.51055 23.3862 7.51055 23.3177C7.51055 23.1956 7.55496 23.0913 7.64378 23.0049C7.73566 22.9156 7.84439 22.8709 7.96996 22.8709C8.04959 22.8709 8.12922 22.8962 8.20885 22.9469C8.29154 22.9945 8.34974 23.0526 8.38343 23.1211C8.50287 23.3475 8.68664 23.5113 8.93472 23.6126C9.18586 23.7139 9.48448 23.7645 9.83056 23.7645C10.0143 23.7645 10.2042 23.7452 10.4002 23.7064C10.5993 23.6647 10.7662 23.5947 10.901 23.4964C11.0388 23.3981 11.1077 23.2641 11.1077 23.0943C11.1077 22.9632 11.048 22.8694 10.9286 22.8128C10.8122 22.7532 10.6713 22.7145 10.5059 22.6966C10.3436 22.6788 10.192 22.6624 10.0511 22.6475C9.78156 22.6207 9.50285 22.5864 9.21496 22.5447C8.92706 22.5 8.65907 22.43 8.41099 22.3347C8.16597 22.2394 7.96689 22.1024 7.81376 21.9236C7.66062 21.7449 7.58405 21.5066 7.58405 21.2087C7.58405 20.9406 7.6499 20.7098 7.7816 20.5162C7.91636 20.3225 8.094 20.1647 8.31451 20.0425C8.53503 19.9174 8.77545 19.8251 9.03579 19.7655C9.29918 19.7059 9.55951 19.6762 9.81678 19.6762Z" fill="black"/>
<path d="M13.6391 18.8853C13.6391 18.7632 13.6835 18.6589 13.7723 18.5725C13.8611 18.4831 13.9698 18.4385 14.0985 18.4385C14.224 18.4385 14.3312 18.4831 14.4201 18.5725C14.5119 18.6589 14.5579 18.7632 14.5579 18.8853V19.7745H15.1735C15.2929 19.7745 15.3955 19.8162 15.4813 19.8996C15.567 19.983 15.6099 20.0828 15.6099 20.1989C15.6099 20.3151 15.567 20.4149 15.4813 20.4983C15.3955 20.5817 15.2929 20.6234 15.1735 20.6234H14.5533L14.5487 23.3892V23.3981C14.5487 23.5441 14.5655 23.6454 14.5992 23.702C14.6329 23.7556 14.7018 23.7824 14.806 23.7824C14.9377 23.7824 15.054 23.7481 15.1551 23.6796C15.1919 23.6558 15.2363 23.6349 15.2883 23.6171C15.3404 23.5962 15.3909 23.5858 15.4399 23.5858C15.5655 23.5858 15.6727 23.629 15.7615 23.7154C15.8534 23.8018 15.8994 23.906 15.8994 24.0281C15.8994 24.1741 15.8381 24.2918 15.7156 24.3811C15.5992 24.4675 15.466 24.539 15.3159 24.5956C15.1658 24.6522 15.005 24.6805 14.8335 24.6805C14.4476 24.6805 14.1505 24.5658 13.9423 24.3365C13.734 24.1041 13.6299 23.8152 13.6299 23.4696V23.4294L13.6345 20.6279H13.0418C12.9224 20.6279 12.8198 20.5862 12.734 20.5028C12.6483 20.4194 12.6054 20.3196 12.6054 20.2034C12.6054 20.0872 12.6483 19.9874 12.734 19.904C12.8198 19.8206 12.9224 19.7789 13.0418 19.7789H13.6391V18.8853Z" fill="black"/>
<path d="M18.6834 19.6985C19.0907 19.6985 19.4644 19.7968 19.8043 19.9934C20.1443 20.19 20.4169 20.4551 20.6221 20.7887C20.8303 21.1194 20.9345 21.4872 20.9345 21.8924C20.9345 21.9758 20.9299 22.0607 20.9207 22.147C20.9084 22.2573 20.8564 22.3511 20.7645 22.4285C20.6757 22.503 20.5746 22.5402 20.4613 22.5402L17.25 22.5447C17.3021 22.7592 17.4001 22.9603 17.544 23.1479C17.688 23.3356 17.8626 23.4875 18.0678 23.6037C18.276 23.7198 18.5027 23.7779 18.7477 23.7779C19.0111 23.7779 19.2469 23.7154 19.4552 23.5903C19.6634 23.4652 19.8258 23.3207 19.9422 23.1569C19.9789 23.1003 20.034 23.0526 20.1075 23.0139C20.1841 22.9751 20.2561 22.9558 20.3235 22.9558C20.449 22.9558 20.5562 23.0005 20.645 23.0898C20.7369 23.1792 20.7829 23.2849 20.7829 23.4071C20.7829 23.5024 20.7553 23.5873 20.7002 23.6618C20.5103 23.9328 20.2484 24.1682 19.9146 24.3677C19.5838 24.5643 19.1994 24.6626 18.7615 24.6626C18.4093 24.6626 18.0815 24.5956 17.7783 24.4616C17.4782 24.3275 17.2163 24.1443 16.9927 23.912C16.7692 23.6796 16.5946 23.413 16.469 23.1122C16.3465 22.8083 16.2853 22.4881 16.2853 22.1515C16.2853 21.8268 16.3465 21.5185 16.469 21.2266C16.5915 20.9317 16.7615 20.6696 16.979 20.4402C17.1995 20.2108 17.4552 20.0306 17.7462 19.8996C18.0371 19.7655 18.3495 19.6985 18.6834 19.6985ZM19.9881 21.6466C19.9299 21.3547 19.7798 21.106 19.5379 20.9004C19.2959 20.6949 19.0111 20.5921 18.6834 20.5921C18.3495 20.5921 18.054 20.6979 17.7967 20.9094C17.5425 21.1209 17.371 21.3681 17.2822 21.6511L19.9881 21.6466Z" fill="black"/>
<path d="M24.7154 20.2481C24.7154 20.4864 24.5975 20.6189 24.3617 20.6457C24.2759 20.6547 24.1672 20.6279 24.0355 20.5653C23.9038 20.4998 23.7706 20.467 23.6358 20.467C23.3693 20.467 23.158 20.534 23.0018 20.6681C22.8456 20.7992 22.7338 20.9764 22.6664 21.1998C22.5991 21.4232 22.5654 21.6734 22.5654 21.9504V24.256C22.5654 24.3871 22.524 24.4913 22.4413 24.5688C22.3617 24.6462 22.2499 24.685 22.106 24.685C21.9651 24.685 21.8533 24.6462 21.7706 24.5688C21.6879 24.4913 21.6466 24.3856 21.6466 24.2516V20.1364C21.6466 20.0023 21.6802 19.8921 21.7476 19.8057C21.8181 19.7193 21.913 19.6762 22.0325 19.6762C22.1029 19.6762 22.1841 19.7059 22.2759 19.7655C22.3709 19.8221 22.4367 19.9204 22.4735 20.0604L22.5194 20.3821C22.5592 20.2987 22.6358 20.2019 22.7491 20.0917C22.8625 19.9815 22.9972 19.8862 23.1534 19.8057C23.3096 19.7223 23.4719 19.6806 23.6404 19.6806C23.9528 19.6806 24.2101 19.7164 24.4122 19.7879C24.6143 19.8564 24.7154 20.0098 24.7154 20.2481Z" fill="black"/>
<path d="M27.3478 19.6851C27.7 19.6851 28.0277 19.7506 28.331 19.8817C28.6372 20.0128 28.9052 20.1945 29.1349 20.4268C29.3646 20.6591 29.5438 20.9257 29.6724 21.2266C29.8041 21.5275 29.87 21.8477 29.87 22.1873C29.87 22.5209 29.8041 22.8381 29.6724 23.139C29.5407 23.4369 29.3585 23.7005 29.1257 23.9298C28.896 24.1562 28.628 24.335 28.3218 24.466C28.0186 24.5971 27.6939 24.6626 27.3478 24.6626C27.0048 24.6626 26.6801 24.5986 26.3739 24.4705C26.0707 24.3424 25.8027 24.1652 25.5699 23.9388C25.3402 23.7124 25.1595 23.4503 25.0278 23.1524C24.8961 22.8515 24.8303 22.5298 24.8303 22.1873C24.8303 21.8477 24.8961 21.5275 25.0278 21.2266C25.1595 20.9257 25.3402 20.6606 25.5699 20.4313C25.8027 20.1989 26.0707 20.0172 26.3739 19.8862C26.6771 19.7521 27.0017 19.6851 27.3478 19.6851ZM25.7583 22.1962C25.7583 22.4851 25.8302 22.7488 25.9742 22.9871C26.1212 23.2224 26.3157 23.4101 26.5576 23.5501C26.7996 23.6901 27.0645 23.7601 27.3524 23.7601C27.6464 23.7601 27.9129 23.6886 28.1518 23.5456C28.3937 23.3996 28.5852 23.2075 28.726 22.9692C28.87 22.7309 28.942 22.4702 28.942 22.1873C28.942 21.8983 28.8715 21.6332 28.7306 21.3919C28.5898 21.1477 28.3983 20.9526 28.1564 20.8066C27.9175 20.6606 27.648 20.5877 27.3478 20.5877C27.0446 20.5877 26.7736 20.6621 26.5347 20.8111C26.2958 20.957 26.1059 21.1521 25.965 21.3964C25.8272 21.6377 25.7583 21.9043 25.7583 22.1962Z" fill="black"/>
<path d="M31.0277 19.2249C30.8868 19.2249 30.7719 19.1832 30.6831 19.0998C30.5943 19.0134 30.5484 18.9076 30.5453 18.7825L30.5361 18.4429C30.5361 18.3297 30.5882 18.2389 30.6923 18.1704C30.7964 18.0989 30.896 18.0631 30.9909 18.0631C31.1196 18.0631 31.2268 18.1063 31.3125 18.1927C31.4013 18.2791 31.4473 18.3834 31.4503 18.5055L31.4549 18.7736C31.4549 18.8898 31.4151 18.994 31.3355 19.0864C31.2559 19.1787 31.1533 19.2249 31.0277 19.2249ZM30.5315 20.0693C30.5315 19.9562 30.5805 19.8638 30.6785 19.7923C30.7765 19.7208 30.8715 19.6851 30.9634 19.6851C31.0981 19.6851 31.213 19.7238 31.3079 19.8013C31.4029 19.8787 31.4503 19.9815 31.4503 20.1096V20.114L31.4595 24.2516C31.4595 24.3707 31.4136 24.472 31.3217 24.5554C31.2329 24.6388 31.1257 24.6805 31.0001 24.6805C30.8715 24.6805 30.7628 24.6388 30.6739 24.5554C30.5851 24.469 30.5407 24.3662 30.5407 24.2471L30.5315 20.0693Z" fill="black"/>
<path d="M32.1257 22.1739C32.1257 21.8373 32.19 21.5096 32.3186 21.1909C32.4473 20.8721 32.6371 20.5906 32.8883 20.3464C33.1119 20.1349 33.3691 19.971 33.6601 19.8549C33.9511 19.7387 34.2527 19.6806 34.5651 19.6806C34.8837 19.6806 35.167 19.7462 35.415 19.8772C35.6631 20.0083 35.8852 20.1855 36.0812 20.4089V18.5278C36.0812 18.4057 36.1256 18.3014 36.2144 18.2151C36.3063 18.1257 36.415 18.081 36.5406 18.081C36.6662 18.081 36.7734 18.1257 36.8622 18.2151C36.9541 18.3014 37 18.4057 37 18.5278V24.2337C37 24.3558 36.9541 24.4616 36.8622 24.5509C36.7734 24.6373 36.6662 24.6805 36.5406 24.6805C36.415 24.6805 36.3201 24.6373 36.2558 24.5509C36.1945 24.4616 36.1547 24.3558 36.1363 24.2337L36.0812 23.8718C35.9066 24.116 35.6754 24.3082 35.3875 24.4482C35.1026 24.5882 34.8178 24.6582 34.533 24.6582C34.1869 24.6582 33.8668 24.5911 33.5728 24.4571C33.2819 24.323 33.0276 24.1413 32.8102 23.912C32.5927 23.6796 32.4243 23.4145 32.3048 23.1166C32.1854 22.8188 32.1257 22.5045 32.1257 22.1739ZM34.5238 23.7645C34.7229 23.7645 34.9204 23.7213 35.1164 23.6349C35.3124 23.5486 35.4794 23.4324 35.6172 23.2864C35.755 23.1375 35.8607 22.9632 35.9342 22.7637C36.0107 22.5641 36.049 22.36 36.049 22.1515C36.049 21.8656 35.9847 21.6019 35.8561 21.3607C35.7274 21.1194 35.5498 20.9257 35.3232 20.7798C35.0996 20.6338 34.8408 20.5608 34.5468 20.5608C34.2589 20.5608 34.0001 20.6383 33.7704 20.7932C33.5437 20.9451 33.3645 21.1447 33.2328 21.3919C33.1042 21.6362 33.0399 21.8968 33.0399 22.1739C33.0399 22.4509 33.1042 22.7115 33.2328 22.9558C33.3615 23.1971 33.5376 23.3922 33.7612 23.5411C33.9878 23.6901 34.242 23.7645 34.5238 23.7645Z" fill="black"/>
</svg>
