<svg width="63" height="18" viewBox="0 0 63 18" fill="none" xmlns="http://www.w3.org/2000/svg">
<path d="M8.60228 10.6465C8.08021 10.5423 7.74385 10.0462 7.851 9.53841C7.95816 9.03065 8.46824 8.70351 8.99031 8.80773C9.51238 8.91194 9.84874 9.40804 9.74158 9.9158C9.63443 10.4236 9.12435 10.7507 8.60228 10.6465Z" fill="black"/>
<path d="M5.5724 10.9998C5.18084 10.9216 4.92858 10.5495 5.00894 10.1687C5.0893 9.7879 5.47187 9.54254 5.86342 9.62071C6.25497 9.69887 6.50724 10.0709 6.42687 10.4518C6.34651 10.8326 5.96395 11.0779 5.5724 10.9998Z" fill="black"/>
<path d="M7.40828 12.8034C7.14724 12.7513 6.97906 12.5033 7.03264 12.2494C7.08621 11.9955 7.34126 11.8319 7.60229 11.884C7.86332 11.9361 8.0315 12.1842 7.97793 12.4381C7.92435 12.692 7.66931 12.8555 7.40828 12.8034Z" fill="black"/>
<path d="M10.3902 5.21191L12.9148 2.75656M14.4915 5.21191L17.981 1.81802M14.2502 1.69236L15.3273 0.644836M12.8027 6.85436L13.156 6.51074M11.8377 10.7342C11.8377 13.0667 9.89353 14.9576 7.49524 14.9576C5.09696 14.9576 3.15277 13.0667 3.15277 10.7342C3.15277 8.40164 5.09696 6.51074 7.49524 6.51074C9.89353 6.51074 11.8377 8.40164 11.8377 10.7342Z" stroke="black" stroke-width="1.2" stroke-linecap="round"/>
<path d="M10.9316 1.34874L7.91603 4.39901C0.678571 4.39901 -0.889555 12.0021 3.09105 15.4269C7.07166 18.8517 14.7916 16.6001 13.8266 9.56101L18.6516 4.63365" stroke="#6100DD" stroke-width="1.2" stroke-linecap="round"/>
<path d="M28.5635 6.28149C28.5972 6.20703 28.6539 6.14447 28.7335 6.09383C28.8162 6.04021 28.9004 6.0134 28.9862 6.0134C29.0689 6.0134 29.1515 6.04021 29.2342 6.09383C29.32 6.14447 29.3782 6.20703 29.4088 6.28149L31.9356 11.9829C31.9631 12.0425 31.9769 12.1035 31.9769 12.1661C31.9769 12.2882 31.931 12.394 31.8391 12.4833C31.7503 12.5697 31.6431 12.6129 31.5175 12.6129C31.4317 12.6129 31.3475 12.5861 31.2648 12.5325C31.1821 12.4788 31.1239 12.4148 31.0902 12.3403L30.3047 10.5665L27.686 10.5307L26.8821 12.3448C26.8514 12.4193 26.7948 12.4833 26.7121 12.5369C26.6294 12.5935 26.5452 12.6218 26.4594 12.6218C26.3338 12.6218 26.2251 12.5786 26.1332 12.4923C26.0444 12.4029 26 12.2971 26 12.175C26 12.1125 26.0138 12.0514 26.0413 11.9918L28.5635 6.28149ZM28.9862 7.59067L28.0811 9.64156L29.905 9.6639L28.9862 7.59067Z" fill="black"/>
<path d="M34.9677 7.61301C35.4056 7.61301 35.8023 7.70684 36.1575 7.8945C36.5159 8.07919 36.7808 8.32941 36.9523 8.64516C36.9891 8.70771 37.0074 8.7792 37.0074 8.85963C37.0074 8.98176 36.9615 9.08751 36.8696 9.17687C36.7808 9.26325 36.6736 9.30645 36.548 9.30645C36.4715 9.30645 36.3918 9.28262 36.3091 9.23496C36.2295 9.18432 36.1728 9.12623 36.1392 9.0607C36.0381 8.87601 35.8865 8.7375 35.6843 8.64516C35.4822 8.55281 35.2418 8.50664 34.9631 8.50664C34.8007 8.50664 34.617 8.52749 34.4118 8.5692C34.2066 8.6109 34.0289 8.67792 33.8789 8.77027C33.7288 8.86261 33.6538 8.98772 33.6538 9.14559C33.6538 9.26176 33.715 9.35411 33.8375 9.42262C33.9631 9.48815 34.1162 9.53879 34.2969 9.57454C34.4807 9.61028 34.6644 9.63709 34.8482 9.65496C35.032 9.66986 35.1821 9.68326 35.2984 9.69518C35.5251 9.71901 35.7487 9.75624 35.9692 9.80688C36.1897 9.85454 36.3918 9.92603 36.5756 10.0214C36.7594 10.1167 36.9048 10.2463 37.012 10.4101C37.1223 10.5739 37.1774 10.7824 37.1774 11.0356C37.1774 11.3961 37.0702 11.691 36.8558 11.9203C36.6414 12.1497 36.3673 12.3195 36.0335 12.4297C35.6997 12.5399 35.3505 12.595 34.986 12.595C34.4868 12.595 34.032 12.4997 33.6216 12.3091C33.2142 12.1154 32.9126 11.8339 32.7166 11.4646C32.6798 11.3931 32.6614 11.3231 32.6614 11.2546C32.6614 11.1324 32.7058 11.0282 32.7947 10.9418C32.8865 10.8524 32.9953 10.8078 33.1208 10.8078C33.2005 10.8078 33.2801 10.8331 33.3597 10.8837C33.4424 10.9314 33.5006 10.9895 33.5343 11.058C33.6538 11.2844 33.8375 11.4482 34.0856 11.5495C34.3367 11.6507 34.6354 11.7014 34.9814 11.7014C35.1652 11.7014 35.3551 11.682 35.5511 11.6433C35.7502 11.6016 35.9171 11.5316 36.0519 11.4333C36.1897 11.335 36.2586 11.201 36.2586 11.0312C36.2586 10.9001 36.1989 10.8063 36.0794 10.7497C35.963 10.6901 35.8222 10.6514 35.6568 10.6335C35.4944 10.6156 35.3428 10.5992 35.202 10.5843C34.9324 10.5575 34.6537 10.5233 34.3658 10.4816C34.0779 10.4369 33.8099 10.3669 33.5619 10.2716C33.3169 10.1763 33.1178 10.0392 32.9646 9.8605C32.8115 9.68177 32.7349 9.44347 32.7349 9.14559C32.7349 8.8775 32.8008 8.64665 32.9325 8.45303C33.0672 8.2594 33.2449 8.10153 33.4654 7.9794C33.6859 7.85429 33.9263 7.76195 34.1867 7.70237C34.4501 7.6428 34.7104 7.61301 34.9677 7.61301Z" fill="black"/>
<path d="M38.7899 6.82214C38.7899 6.70001 38.8344 6.59576 38.9232 6.50937C39.012 6.42001 39.1207 6.37533 39.2493 6.37533C39.3749 6.37533 39.4821 6.42001 39.5709 6.50937C39.6628 6.59576 39.7088 6.70001 39.7088 6.82214V7.71131H40.3244C40.4438 7.71131 40.5464 7.75301 40.6322 7.83642C40.7179 7.91982 40.7608 8.01961 40.7608 8.13579C40.7608 8.25196 40.7179 8.35175 40.6322 8.43515C40.5464 8.51856 40.4438 8.56026 40.3244 8.56026H39.7042L39.6996 11.3261V11.335C39.6996 11.481 39.7164 11.5822 39.7501 11.6388C39.7838 11.6924 39.8527 11.7193 39.9568 11.7193C40.0885 11.7193 40.2049 11.685 40.306 11.6165C40.3427 11.5927 40.3872 11.5718 40.4392 11.5539C40.4913 11.5331 40.5418 11.5227 40.5908 11.5227C40.7164 11.5227 40.8236 11.5659 40.9124 11.6522C41.0043 11.7386 41.0502 11.8429 41.0502 11.965C41.0502 12.111 40.989 12.2286 40.8665 12.318C40.7501 12.4044 40.6169 12.4759 40.4668 12.5325C40.3167 12.5891 40.1559 12.6174 39.9844 12.6174C39.5985 12.6174 39.3014 12.5027 39.0932 12.2733C38.8849 12.041 38.7808 11.752 38.7808 11.4065V11.3663L38.7853 8.56473H38.1927C38.0733 8.56473 37.9707 8.52303 37.8849 8.43962C37.7991 8.35622 37.7563 8.25643 37.7563 8.14025C37.7563 8.02408 37.7991 7.92429 37.8849 7.84089C37.9707 7.75748 38.0733 7.71578 38.1927 7.71578H38.7899V6.82214Z" fill="black"/>
<path d="M43.8342 7.63535C44.2416 7.63535 44.6152 7.73365 44.9552 7.93025C45.2952 8.12685 45.5678 8.39196 45.773 8.72558C45.9812 9.05623 46.0854 9.42411 46.0854 9.82922C46.0854 9.91263 46.0808 9.99752 46.0716 10.0839C46.0593 10.1941 46.0073 10.288 45.9154 10.3654C45.8266 10.4399 45.7255 10.4771 45.6122 10.4771L42.4009 10.4816C42.453 10.696 42.551 10.8971 42.6949 11.0848C42.8389 11.2724 43.0134 11.4244 43.2186 11.5405C43.4269 11.6567 43.6535 11.7148 43.8986 11.7148C44.162 11.7148 44.3978 11.6522 44.6061 11.5271C44.8143 11.402 44.9766 11.2575 45.093 11.0937C45.1298 11.0371 45.1849 10.9895 45.2584 10.9507C45.335 10.912 45.407 10.8926 45.4743 10.8926C45.5999 10.8926 45.7071 10.9373 45.7959 11.0267C45.8878 11.1161 45.9337 11.2218 45.9337 11.3439C45.9337 11.4393 45.9062 11.5241 45.8511 11.5986C45.6612 11.8697 45.3993 12.105 45.0655 12.3046C44.7347 12.5012 44.3503 12.5995 43.9123 12.5995C43.5601 12.5995 43.2324 12.5325 42.9292 12.3984C42.6291 12.2644 42.3672 12.0812 42.1436 11.8488C41.92 11.6165 41.7455 11.3499 41.6199 11.049C41.4974 10.7452 41.4361 10.425 41.4361 10.0884C41.4361 9.76369 41.4974 9.45539 41.6199 9.16346C41.7424 8.86857 41.9124 8.60643 42.1298 8.37707C42.3504 8.1477 42.6061 7.96748 42.8971 7.83642C43.188 7.70237 43.5004 7.63535 43.8342 7.63535ZM45.139 9.58347C45.0808 9.29155 44.9307 9.04282 44.6887 8.83729C44.4468 8.63175 44.162 8.52898 43.8342 8.52898C43.5004 8.52898 43.2049 8.63473 42.9476 8.84622C42.6934 9.05772 42.5219 9.30496 42.4331 9.58794L45.139 9.58347Z" fill="black"/>
<path d="M49.8663 8.18494C49.8663 8.42324 49.7484 8.55579 49.5125 8.5826C49.4268 8.59154 49.3181 8.56473 49.1864 8.50218C49.0547 8.43664 48.9214 8.40388 48.7867 8.40388C48.5202 8.40388 48.3089 8.4709 48.1527 8.60494C47.9965 8.73601 47.8847 8.91325 47.8173 9.13666C47.7499 9.36006 47.7163 9.61028 47.7163 9.88731V12.1929C47.7163 12.324 47.6749 12.4282 47.5922 12.5057C47.5126 12.5831 47.4008 12.6218 47.2568 12.6218C47.116 12.6218 47.0042 12.5831 46.9215 12.5057C46.8388 12.4282 46.7974 12.3225 46.7974 12.1884V8.07323C46.7974 7.93919 46.8311 7.82897 46.8985 7.74259C46.9689 7.6562 47.0639 7.61301 47.1833 7.61301C47.2538 7.61301 47.3349 7.6428 47.4268 7.70237C47.5218 7.75897 47.5876 7.85727 47.6244 7.99727L47.6703 8.31898C47.7101 8.23557 47.7867 8.13876 47.9 8.02855C48.0133 7.91833 48.1481 7.82301 48.3043 7.74259C48.4605 7.65918 48.6228 7.61748 48.7913 7.61748C49.1037 7.61748 49.3609 7.65322 49.5631 7.72471C49.7652 7.79323 49.8663 7.94663 49.8663 8.18494Z" fill="black"/>
<path d="M52.4987 7.62195C52.8509 7.62195 53.1786 7.68748 53.4818 7.81855C53.7881 7.94961 54.0561 8.13132 54.2858 8.36366C54.5155 8.59601 54.6947 8.86261 54.8233 9.16346C54.955 9.46432 55.0209 9.78454 55.0209 10.1241C55.0209 10.4577 54.955 10.775 54.8233 11.0758C54.6916 11.3737 54.5094 11.6373 54.2766 11.8667C54.0469 12.0931 53.7789 12.2718 53.4726 12.4029C53.1694 12.534 52.8448 12.5995 52.4987 12.5995C52.1557 12.5995 51.831 12.5354 51.5248 12.4074C51.2215 12.2793 50.9536 12.102 50.7208 11.8756C50.4911 11.6493 50.3104 11.3871 50.1787 11.0892C50.047 10.7884 49.9811 10.4667 49.9811 10.1241C49.9811 9.78454 50.047 9.46432 50.1787 9.16346C50.3104 8.86261 50.4911 8.5975 50.7208 8.36813C50.9536 8.13579 51.2215 7.95408 51.5248 7.82301C51.828 7.68897 52.1526 7.62195 52.4987 7.62195ZM50.9091 10.1331C50.9091 10.422 50.9811 10.6856 51.1251 10.9239C51.2721 11.1592 51.4666 11.3469 51.7085 11.4869C51.9505 11.6269 52.2154 11.6969 52.5033 11.6969C52.7973 11.6969 53.0638 11.6254 53.3027 11.4824C53.5446 11.3365 53.736 11.1444 53.8769 10.9061C54.0209 10.6677 54.0928 10.4071 54.0928 10.1241C54.0928 9.83518 54.0224 9.57007 53.8815 9.32879C53.7406 9.08453 53.5492 8.88942 53.3073 8.74346C53.0684 8.5975 52.7988 8.52452 52.4987 8.52452C52.1955 8.52452 51.9244 8.59899 51.6855 8.74792C51.4467 8.89389 51.2568 9.089 51.1159 9.33326C50.9781 9.57454 50.9091 9.84114 50.9091 10.1331Z" fill="black"/>
<path d="M56.1786 7.16172C56.0377 7.16172 55.9228 7.12002 55.834 7.03662C55.7452 6.95023 55.6992 6.84448 55.6962 6.71938L55.687 6.37979C55.687 6.2666 55.7391 6.17575 55.8432 6.10724C55.9473 6.03575 56.0469 6 56.1418 6C56.2704 6 56.3776 6.04319 56.4634 6.12958C56.5522 6.21596 56.5982 6.32022 56.6012 6.44235L56.6058 6.71044C56.6058 6.82661 56.566 6.93087 56.4864 7.02321C56.4067 7.11555 56.3041 7.16172 56.1786 7.16172ZM55.6824 8.00621C55.6824 7.89301 55.7314 7.80067 55.8294 7.72918C55.9274 7.65769 56.0224 7.62195 56.1142 7.62195C56.249 7.62195 56.3639 7.66067 56.4588 7.73812C56.5537 7.81557 56.6012 7.91833 56.6012 8.04642V8.05089L56.6104 12.1884C56.6104 12.3076 56.5645 12.4088 56.4726 12.4923C56.3838 12.5757 56.2766 12.6174 56.151 12.6174C56.0224 12.6174 55.9136 12.5757 55.8248 12.4923C55.736 12.4059 55.6916 12.3031 55.6916 12.1839L55.6824 8.00621Z" fill="black"/>
<path d="M57.2766 10.1107C57.2766 9.77411 57.3409 9.44645 57.4695 9.12772C57.5981 8.80899 57.788 8.5275 58.0392 8.28324C58.2627 8.07174 58.52 7.90791 58.811 7.79174C59.1019 7.67556 59.4036 7.61748 59.716 7.61748C60.0345 7.61748 60.3178 7.68301 60.5659 7.81408C60.814 7.94514 61.036 8.12238 61.2321 8.34579V6.46469C61.2321 6.34256 61.2765 6.2383 61.3653 6.15192C61.4572 6.06255 61.5659 6.01787 61.6915 6.01787C61.817 6.01787 61.9242 6.06255 62.0131 6.15192C62.1049 6.2383 62.1509 6.34256 62.1509 6.46469V12.1705C62.1509 12.2927 62.1049 12.3984 62.0131 12.4878C61.9242 12.5742 61.817 12.6174 61.6915 12.6174C61.5659 12.6174 61.471 12.5742 61.4066 12.4878C61.3454 12.3984 61.3056 12.2927 61.2872 12.1705L61.2321 11.8086C61.0575 12.0529 60.8262 12.245 60.5384 12.385C60.2535 12.525 59.9687 12.595 59.6839 12.595C59.3378 12.595 59.0177 12.528 58.7237 12.394C58.4327 12.2599 58.1785 12.0782 57.9611 11.8488C57.7436 11.6165 57.5752 11.3514 57.4557 11.0535C57.3363 10.7556 57.2766 10.4414 57.2766 10.1107ZM59.6747 11.7014C59.8737 11.7014 60.0713 11.6582 60.2673 11.5718C60.4633 11.4854 60.6302 11.3693 60.7681 11.2233C60.9059 11.0744 61.0115 10.9001 61.085 10.7005C61.1616 10.5009 61.1999 10.2969 61.1999 10.0884C61.1999 9.80241 61.1356 9.53879 61.007 9.29751C60.8783 9.05623 60.7007 8.86261 60.474 8.71665C60.2505 8.57069 59.9917 8.49771 59.6976 8.49771C59.4097 8.49771 59.1509 8.57516 58.9212 8.73005C58.6946 8.88197 58.5154 9.08155 58.3837 9.32879C58.2551 9.57305 58.1908 9.83369 58.1908 10.1107C58.1908 10.3877 58.2551 10.6484 58.3837 10.8926C58.5124 11.1339 58.6885 11.329 58.912 11.478C59.1387 11.6269 59.3929 11.7014 59.6747 11.7014Z" fill="black"/>
</svg>
